<svg width="25" height="25" viewBox="0 0 25 25" fill="none" xmlns="http://www.w3.org/2000/svg">
<g clip-path="url(#clip0_370_2506)">
<path d="M0.000164341 11.9795C0.225972 11.556 0.585566 11.4509 1.04958 11.4515C8.68657 11.462 16.3236 11.4587 23.9599 11.4587C24.6595 11.4587 24.9982 11.7178 24.993 12.2471C24.9878 12.7679 24.6562 13.0204 23.9762 13.0204C16.3066 13.0204 8.63762 13.0185 0.968003 13.0257C0.503336 13.0257 0.167236 12.8867 -0.000488281 12.435V11.9795H0.000164341Z"/>
<path d="M-0.00032394 1.95524C0.0323072 1.86583 0.0682014 1.77773 0.0962642 1.68636C0.401691 0.691766 1.2873 0.0117333 2.32823 0.00585971C4.04202 -0.00392962 5.75646 0.000638733 7.47024 0.00390184C7.98908 0.00455447 8.32975 0.31455 8.33497 0.772691C8.34084 1.2478 7.99887 1.56236 7.45915 1.56367C5.80997 1.56693 4.16145 1.56367 2.51227 1.56497C1.83746 1.56497 1.56271 1.83842 1.56205 2.50932C1.56075 4.16894 1.56336 5.82921 1.5601 7.48883C1.55944 7.92086 1.33168 8.23086 0.969473 8.32092C0.602699 8.41229 0.268556 8.24326 0.0616752 7.86147C0.0414439 7.82362 0.0199073 7.78642 -0.000976562 7.74857V1.95524H-0.00032394Z"/>
<path d="M0 17.252C0.0208839 17.2142 0.0417678 17.177 0.0619991 17.1391C0.269533 16.7567 0.601065 16.5883 0.968491 16.6784C1.32939 16.7665 1.55911 17.0784 1.56042 17.5092C1.56368 19.1903 1.56042 20.8715 1.56303 22.5526C1.56434 23.1393 1.85802 23.4278 2.44407 23.4356C2.55241 23.4369 2.66074 23.4356 2.76973 23.4356C4.34255 23.4356 5.91537 23.4337 7.48753 23.4369C7.91957 23.4376 8.22891 23.666 8.31832 24.0282C8.41099 24.4061 8.23152 24.7409 7.8269 24.9451C7.79818 24.9595 7.77273 24.9797 7.74597 24.9974H1.95265C1.43577 24.8277 0.911061 24.6443 0.590623 24.1796C0.351111 23.8318 0.193829 23.4258 0 23.0454C0 21.1143 0 19.1831 0 17.252Z"/>
<path d="M17.2495 24.998C17.2228 24.9804 17.1967 24.9602 17.1686 24.9458C16.7646 24.7429 16.5838 24.4074 16.6759 24.0302C16.7633 23.6713 17.0785 23.4383 17.5054 23.4376C19.0436 23.4344 20.5825 23.4363 22.1207 23.4363C22.2075 23.4363 22.2943 23.4363 22.3804 23.4363C23.204 23.4363 23.4331 23.204 23.4331 22.3673C23.4331 20.7749 23.4312 19.1819 23.4364 17.5895C23.4364 17.4302 23.4553 17.2605 23.5127 17.115C23.6439 16.7848 24.0133 16.6066 24.3664 16.6732C24.7103 16.7378 24.987 17.0347 24.9883 17.408C24.9961 19.2171 25.0131 21.0275 24.9792 22.8359C24.9616 23.7685 24.2717 24.581 23.3711 24.8793C23.2608 24.9158 23.1518 24.9589 23.0422 24.9987H17.2489L17.2495 24.998Z"/>
<path d="M20.1498 0.0025803C20.9629 0.0025803 21.7761 -0.00133543 22.5886 0.00323292C23.9715 0.0110644 24.989 1.02524 24.9942 2.40945C25 4.11149 24.9987 5.81288 24.9929 7.51491C24.9909 8.00438 24.6646 8.33657 24.2162 8.33722C23.7679 8.33852 23.4494 8.00503 23.4344 7.51883C23.4318 7.43203 23.4338 7.34523 23.4338 7.25843C23.4338 5.67583 23.4344 4.09322 23.4338 2.51061C23.4338 1.83971 23.1583 1.56496 22.4868 1.56431C20.8389 1.563 19.1917 1.56169 17.5438 1.56561C17.2162 1.56626 16.9454 1.46837 16.7698 1.18122C16.4448 0.649329 16.8266 0.011717 17.4838 0.00453817C18.3727 -0.00525117 19.2615 0.00192768 20.1504 0.00192768L20.1498 0.0025803Z"/>
<path d="M6.2489 16.6654C6.2489 17.2501 6.25282 17.8355 6.2476 18.4203C6.24303 18.9339 5.92847 19.2726 5.46837 19.2732C5.00892 19.2732 4.69044 18.9345 4.68848 18.4216C4.68392 17.2514 4.68392 16.0813 4.68848 14.9111C4.69044 14.3975 5.00762 14.0588 5.46772 14.0588C5.92781 14.0588 6.24368 14.3975 6.24825 14.9104C6.25347 15.4952 6.24956 16.0806 6.24956 16.6654H6.2489Z"/>
<path d="M7.81135 16.6556C7.81135 16.0813 7.80809 15.5069 7.812 14.9326C7.81527 14.3968 8.12983 14.0536 8.60298 14.0588C9.06112 14.064 9.37047 14.4034 9.37177 14.9215C9.37569 16.0806 9.37569 17.2403 9.37177 18.3994C9.36981 18.9358 9.05395 19.2791 8.58145 19.2732C8.12396 19.268 7.81592 18.928 7.812 18.4098C7.80744 17.8251 7.8107 17.2397 7.8107 16.6549L7.81135 16.6556Z"/>
<path d="M13.0184 16.6568C13.0184 17.2416 13.0223 17.827 13.0171 18.4118C13.0125 18.9293 12.7044 19.2686 12.2463 19.2732C11.7738 19.2778 11.4592 18.9345 11.4573 18.3974C11.454 17.2383 11.4534 16.0786 11.4573 14.9196C11.4592 14.4027 11.7692 14.0633 12.228 14.0588C12.7005 14.0542 13.0138 14.3975 13.0171 14.9346C13.021 15.5089 13.0177 16.0832 13.0177 16.6575L13.0184 16.6568Z"/>
<path d="M16.1426 16.664C16.1426 17.2488 16.1465 17.8342 16.1413 18.4189C16.1368 18.9332 15.8228 19.2719 15.3634 19.2732C14.9033 19.2745 14.5835 18.9352 14.5816 18.4228C14.577 17.2527 14.577 16.0825 14.5816 14.9124C14.5835 14.3981 14.8994 14.0594 15.3588 14.0581C15.8189 14.0568 16.1361 14.3955 16.1407 14.9078C16.1459 15.4926 16.142 16.078 16.142 16.6627L16.1426 16.664Z"/>
<path d="M18.7464 16.6465C18.7464 16.0721 18.7431 15.4978 18.747 14.9235C18.751 14.4047 19.0564 14.0647 19.5139 14.0588C19.987 14.0523 20.3049 14.3956 20.3068 14.9301C20.3107 16.0891 20.3107 17.2488 20.3068 18.4079C20.3049 18.9267 19.9975 19.2667 19.54 19.2733C19.0675 19.2804 18.751 18.9365 18.747 18.4014C18.7431 17.8166 18.7464 17.2312 18.7464 16.6465Z"/>
<path d="M4.68696 8.07358C4.68696 7.57497 4.68304 7.07702 4.68826 6.57842C4.69348 6.06546 5.00805 5.72675 5.46815 5.72675C5.92759 5.72675 6.24477 6.06546 6.24738 6.57907C6.25195 7.57562 6.2526 8.57218 6.24738 9.56873C6.24477 10.0823 5.92759 10.4204 5.46749 10.4204C5.00805 10.4204 4.69348 10.081 4.68826 9.56808C4.68304 9.07013 4.68696 8.57153 4.68696 8.07292V8.07358Z"/>
<path d="M7.81147 8.04094C7.81147 7.55344 7.80755 7.06593 7.81277 6.57842C7.81799 6.06546 8.13256 5.72675 8.59331 5.72675C9.05276 5.72675 9.36993 6.06546 9.37254 6.57907C9.37711 7.57562 9.37776 8.57218 9.37254 9.56873C9.36993 10.0817 9.05276 10.4204 8.59266 10.4204C8.13321 10.4204 7.81865 10.081 7.81343 9.56743C7.80821 9.05838 7.81212 8.54934 7.81212 8.03964L7.81147 8.04094Z"/>
<path d="M13.018 8.06705C13.018 8.56565 13.0219 9.0636 13.0174 9.56221C13.0122 10.0784 12.7028 10.4178 12.2447 10.4217C11.7839 10.4256 11.4609 10.0863 11.4583 9.57657C11.453 8.56892 11.4524 7.56127 11.4583 6.55427C11.4615 6.0648 11.7826 5.73131 12.2303 5.72805C12.68 5.72479 13.0076 6.05567 13.0161 6.54057C13.0246 7.04961 13.018 7.55866 13.018 8.0677V8.06705Z"/>
<path d="M16.1428 8.08923C16.1428 8.58783 16.148 9.08578 16.1415 9.58439C16.135 10.0915 15.8086 10.4289 15.3466 10.421C14.9008 10.4139 14.5856 10.0784 14.583 9.58569C14.5771 8.57804 14.5771 7.57039 14.583 6.5634C14.5856 6.05696 14.9152 5.71956 15.3773 5.72674C15.823 5.73391 16.135 6.06806 16.1415 6.56144C16.148 7.07049 16.1428 7.57953 16.1428 8.08858V8.08923Z"/>
<path d="M20.3091 8.07359C20.3091 8.5722 20.313 9.07015 20.3078 9.56875C20.302 10.0824 19.988 10.4211 19.5279 10.4211C19.0685 10.4211 18.7507 10.0817 18.7481 9.56875C18.7435 8.5722 18.7435 7.57564 18.7481 6.57909C18.7507 6.06613 19.0672 5.72742 19.5273 5.72742C19.9874 5.72742 20.3019 6.06613 20.3072 6.57909C20.3124 7.07704 20.3085 7.57564 20.3085 8.07425L20.3091 8.07359Z"/>
</g>
<defs>
<clipPath id="clip0_370_2506">
<rect width="25" height="24.998" fill="white"/>
</clipPath>
</defs>
</svg>
