<svg viewBox="0 0 138 40" fill="none" xmlns="http://www.w3.org/2000/svg">
<g clip-path="url(#clip0_367_526)">
<path d="M38.1956 0.789237V30.8666C38.1956 33.6314 37.5127 35.7794 36.1523 37.305C34.7864 38.8362 32.8752 39.6017 30.4133 39.6017C28.6564 39.6017 27.0702 39.1281 25.6547 38.1753C24.2337 37.2224 22.7026 35.6087 21.0613 33.3285L16.4128 26.8295C15.9667 26.1961 15.7409 25.6343 15.7409 25.1496C15.7409 24.7421 15.9282 24.2188 16.3027 23.5799L18.1533 20.6113L18.66 19.8292L9.24186 7.17262C8.75718 6.57779 8.28903 6.27487 7.84291 6.27487C7.46839 6.27487 7.15996 6.46213 6.91762 6.83665C6.67529 7.21117 6.55412 7.71237 6.55412 8.35126V36.914C6.55412 37.6245 6.35033 38.1863 5.93726 38.5938C5.52419 39.0069 4.96791 39.2107 4.25742 39.2107H0V9.13335C0 6.41256 0.688458 4.27008 2.07088 2.72243C3.4533 1.17477 5.35896 0.398193 7.78233 0.398193C9.57232 0.398193 11.1806 0.871852 12.596 1.82468C14.017 2.7775 15.5261 4.39125 17.1343 6.67142L21.7828 13.1705C22.2289 13.7653 22.4547 14.3271 22.4547 14.8503C22.4547 15.2634 22.2675 15.7811 21.893 16.42L20.0424 19.3886L19.5412 20.1707L28.9483 32.8273C29.4329 33.4276 29.9011 33.7251 30.3472 33.7251C30.7217 33.7251 31.0302 33.5378 31.2725 33.1633C31.5148 32.7888 31.636 32.2876 31.636 31.6487V3.08593C31.636 2.37544 31.8508 1.81917 32.2804 1.4061C32.71 0.993021 33.2608 0.789237 33.9327 0.789237H38.1901H38.1956Z" fill="white"/>
<path d="M66.9293 24.4832V39.6073H64.4067C62.9527 39.6073 61.9779 39.2988 61.4932 38.682C61.0085 38.0651 60.7662 36.8645 60.7662 35.069V19.7246C60.7662 19.0141 60.5789 18.4578 60.2044 18.0448C59.8299 17.6317 59.3287 17.4279 58.6898 17.4279H51.4637C50.8304 17.4279 50.3071 17.6317 49.8941 18.0448C49.481 18.4578 49.2772 18.9756 49.2772 19.6144V31.9902C49.2772 32.6235 49.481 33.1413 49.8941 33.5323C50.3071 33.9234 50.8249 34.1216 51.4637 34.1216H57.2303C57.4891 34.1216 57.7039 34.2043 57.8747 34.375C58.0454 34.5402 58.128 34.777 58.128 35.0745C58.128 35.3333 58.0344 35.6142 57.8471 35.9171L55.7762 39.2217H50.0648C47.6745 39.2217 45.9175 38.1753 44.7995 36.0824C43.6814 33.995 43.1196 30.6298 43.1196 26.0033C43.1196 22.159 43.4831 19.2069 44.2101 17.1525C44.9372 15.0982 46.1819 13.6441 47.9333 12.7849C49.6903 11.9258 52.2293 11.4962 55.5504 11.4962C58.8715 11.4962 61.1682 11.8872 62.7765 12.6693C64.3847 13.4514 65.4752 14.7512 66.0535 16.5632C66.6318 18.3752 66.9237 21.0134 66.9237 24.4887" fill="white"/>
<path d="M87.1204 34.3639C87.2912 34.5347 87.3738 34.766 87.3738 35.0634C87.3738 35.3223 87.2802 35.6032 87.0929 35.9061L85.022 39.2107H77.9667C76.2483 39.2107 74.9154 38.704 73.9626 37.6961C73.0098 36.6882 72.5361 35.2507 72.5361 33.3836V6.10964C72.5361 4.28109 73.3568 3.36682 74.9981 3.36682H78.5285V12.0469H86.4815C86.7404 12.0469 86.9552 12.1295 87.1259 12.3003C87.2967 12.4655 87.3793 12.7023 87.3793 12.9997C87.3793 13.2641 87.2857 13.5395 87.0984 13.8424L85.0275 17.147H78.5285V31.9901C78.5285 32.8493 78.6386 33.4166 78.8644 33.6975C79.0903 33.9784 79.5143 34.1161 80.1532 34.1161H86.4815C86.7404 34.1161 86.9552 34.1987 87.1259 34.3695" fill="white"/>
<path d="M96.4997 19.6089V31.9846C96.4997 32.618 96.7034 33.1302 97.1165 33.5268C97.5241 33.9178 98.0528 34.1161 98.6862 34.1161H106.022C106.656 34.1161 107.162 33.9178 107.537 33.5268C107.912 33.1357 108.099 32.6235 108.099 31.9846V19.7191C108.099 19.0086 107.912 18.4523 107.537 18.0392C107.162 17.6317 106.661 17.4224 106.022 17.4224H98.6862C98.0528 17.4224 97.5296 17.6262 97.1165 18.0392C96.7034 18.4523 96.4997 18.9755 96.4997 19.6089ZM102.547 39.6017C99.4848 39.6017 97.0945 39.1831 95.3761 38.3405C93.6577 37.5033 92.4185 36.0989 91.6529 34.1381C90.8874 32.1774 90.5073 29.4456 90.5073 25.9317C90.5073 22.2361 90.8818 19.3501 91.6254 17.2792C92.3689 15.2083 93.5971 13.7212 95.2935 12.829C96.9898 11.9312 99.3747 11.4851 102.437 11.4851C105.499 11.4851 107.636 11.9312 109.299 12.829C110.963 13.7267 112.174 15.2083 112.94 17.2792C113.706 19.3501 114.086 22.2361 114.086 25.9317C114.086 29.4015 113.711 32.1278 112.968 34.1106C112.219 36.0878 111.023 37.4978 109.382 38.3405C107.741 39.1831 105.461 39.6017 102.547 39.6017Z" fill="white"/>
<path d="M121.086 24.2023C120.001 23.4918 119.114 22.5885 118.426 21.487C117.732 20.3855 117.39 19.2399 117.39 18.0447C117.39 13.6771 120.789 11.4906 127.585 11.4906C129.155 11.4906 130.785 11.5952 132.487 11.799C134.183 12.0028 135.538 12.2562 136.546 12.5536C136.882 12.6637 137.113 12.7794 137.246 12.8895C137.378 12.9997 137.444 13.1539 137.444 13.3357C137.444 13.5174 137.334 13.8424 137.108 14.2885L135.709 16.8661H124.561C123.592 16.8661 123.107 17.202 123.107 17.874C123.107 18.2485 123.256 18.623 123.553 18.992C123.851 19.3666 124.336 19.7576 125.007 20.1707L133.352 25.6012C136.452 27.617 138 29.9688 138 32.6565C138 34.8596 137.13 36.5284 135.395 37.6685C133.66 38.8086 131.093 39.3759 127.695 39.3759C125.679 39.3759 123.691 39.2547 121.73 39.0124C119.77 38.7701 118.134 38.4231 116.829 37.977V36.0162C116.829 35.4214 116.994 34.9532 117.33 34.6173C117.666 34.2813 118.134 34.1161 118.729 34.1161H128.472C129.926 34.1161 130.934 34.0114 131.496 33.8076C132.057 33.6039 132.333 33.2404 132.333 32.7171C132.333 31.9681 131.639 31.1474 130.262 30.2552L121.075 24.2078L121.086 24.2023Z" fill="white"/>
</g>
<defs>
<clipPath id="clip0_367_526">
<rect width="138" height="39.2035" fill="white" transform="translate(0 0.398193)"/>
</clipPath>
</defs>
</svg>
