<svg width="17" height="18" viewBox="0 0 17 18" fill="none" xmlns="http://www.w3.org/2000/svg">
<path fill-rule="evenodd" clip-rule="evenodd" d="M9.32676 0.738423L5.66333 1.26177C4.6552 1.40578 3.85898 1.51952 3.23989 1.68922C2.60346 1.86368 2.10271 2.10995 1.71904 2.55231C1.33538 2.99468 1.16241 3.52522 1.07971 4.17994C0.999266 4.8168 0.999272 5.62109 0.999279 6.63944V11.401C0.999272 12.4193 0.999266 13.2236 1.07971 13.8605C1.16241 14.5152 1.33538 15.0457 1.71904 15.4881C2.10271 15.9305 2.60346 16.1767 3.23989 16.3512C3.85899 16.5209 4.65521 16.6346 5.66334 16.7786L9.32673 17.302C10.1921 17.4256 10.8861 17.5248 11.4348 17.5257C12.0024 17.5268 12.4895 17.4245 12.8884 17.0785C13.2873 16.7326 13.4574 16.2648 13.5367 15.7028C13.6133 15.1594 13.6133 14.4584 13.6133 13.5843L13.6133 13.2803H12.7723V13.5511C12.7723 14.4661 12.7714 15.1076 12.704 15.5854C12.6383 16.0514 12.5184 16.2863 12.3374 16.4433C12.1564 16.6002 11.907 16.6857 11.4363 16.6848C10.9538 16.6839 10.3186 16.5942 9.41284 16.4648L5.81125 15.9503C4.76769 15.8012 4.02415 15.6942 3.46221 15.5402C2.91169 15.3893 2.58761 15.2061 2.35433 14.9371C2.12105 14.6681 1.98555 14.3214 1.91402 13.7551C1.841 13.177 1.84021 12.4258 1.84021 11.3716V6.66876C1.84021 5.6146 1.841 4.8634 1.91402 4.28532C1.98555 3.71899 2.12105 3.37227 2.35433 3.10329C2.58761 2.83432 2.91169 2.65115 3.46221 2.50024C4.02415 2.3462 4.76769 2.23919 5.81126 2.09011L9.41284 1.5756C10.3186 1.4462 10.9538 1.35645 11.4363 1.35559C11.907 1.35474 12.1564 1.44016 12.3374 1.59714C12.5184 1.75413 12.6383 1.989 12.704 2.455C12.7714 2.93278 12.7723 3.57428 12.7723 4.48928V4.92648H13.6133L13.6133 4.4561C13.6133 3.582 13.6133 2.88095 13.5367 2.33757C13.4574 1.77556 13.2873 1.30782 12.8884 0.961858C12.4895 0.615891 12.0024 0.513637 11.4348 0.514656C10.8861 0.515641 10.1921 0.614795 9.32676 0.738423Z" stroke-width="0.3604" stroke-linecap="round"/>
<path fill-rule="evenodd" clip-rule="evenodd" d="M8.66175 4.55298L9.31841 5.07831L6.50118 8.59984H15.7176C15.9498 8.59984 16.138 8.78809 16.138 9.02031C16.138 9.25253 15.9498 9.44078 15.7176 9.44078H6.50118L9.31841 12.9623L8.66175 13.4876L5.08789 9.02031L8.66175 4.55298Z" stroke-width="0.3604" stroke-linecap="round" stroke-linejoin="round"/>
</svg>
