<svg id="Camada_1" data-name="Camada 1" xmlns="http://www.w3.org/2000/svg" viewBox="0 0 49 49"><defs><style>.cls-1{fill:#ec5e3f;}.cls-2{fill:#fff;}</style></defs><title>mail-icon</title><path class="cls-1" d="M25.3.8h0A24.5,24.5,0,0,1,49.8,25.3h0A24.5,24.5,0,0,1,25.3,49.8h0A24.5,24.5,0,0,1,.8,25.3h0A24.5,24.5,0,0,1,25.3.8Z" transform="translate(-0.8 -0.8)"/><path class="cls-2" d="M13.92,31.83V18.74a.5.5,0,0,0,.05-.13,2,2,0,0,1,.84-1.24,5.21,5.21,0,0,1,.87-.38H35.79l.13,0a2.07,2.07,0,0,1,1.62,2q0,6.24,0,12.49a2.11,2.11,0,0,1-.21.88,2,2,0,0,1-2,1.17h-17c-.79,0-1.58,0-2.37,0a1.93,1.93,0,0,1-1.61-.79A5.34,5.34,0,0,1,13.92,31.83Zm2.4-13.45.12.13,7.78,7.73a2.48,2.48,0,0,0,.45.35,2,2,0,0,0,2.61-.38L35,18.54l.14-.16ZM29.17,26.2c-.41.44-.75.86-1.15,1.22a3.35,3.35,0,0,1-3.44.67,3.46,3.46,0,0,1-1.38-.89l-.94-1-5.84,5.95H35.05l-5.88-6Zm-13.85,5,5.83-5.94-5.83-5.92Zm14.93-5.88,5.9,5.85V19.36Z" transform="translate(-0.8 -0.8)"/></svg>