<svg width="19" height="20" viewBox="0 0 18 20" fill="none" xmlns="http://www.w3.org/2000/svg">
<path d="M11.7917 16.7752C11.3607 18.5919 9.84674 19.4717 8.49152 19.4755C7.14433 19.4789 5.61138 18.613 5.17061 16.7752H4.94897C3.7698 16.7752 2.59064 16.7752 1.41148 16.7752C0.841104 16.7752 0.39992 16.5384 0.147454 16.0241C-0.107969 15.5036 -0.0205762 15.0138 0.324771 14.5456C0.741046 13.9812 1.13326 13.399 1.52884 12.8198C1.69181 12.5812 1.74542 12.3085 1.745 12.0201C1.74205 10.4618 1.70954 8.9023 1.75091 7.34485C1.82775 4.455 3.18719 2.34956 5.81825 1.16026C9.62045 -0.558455 14.1328 1.74414 15.04 5.82499C15.1561 6.34765 15.2043 6.89438 15.2123 7.43098C15.2347 8.94705 15.2241 10.4635 15.2174 11.98C15.2157 12.3465 15.3153 12.6665 15.5272 12.9629C15.9271 13.5218 16.3226 14.0842 16.7123 14.6508C17.0116 15.086 17.0492 15.5559 16.8162 16.0267C16.5781 16.5071 16.1702 16.7663 15.6345 16.7714C14.4346 16.7828 13.2344 16.7752 12.0341 16.7756C11.9577 16.7756 11.8808 16.7756 11.7917 16.7756V16.7752ZM15.5965 15.4196C15.1891 14.8323 14.8066 14.2708 14.4139 13.7169C14.0441 13.1955 13.8676 12.6217 13.8706 11.9821C13.8778 10.4732 13.8744 8.96393 13.8714 7.45504C13.871 7.22411 13.86 6.99191 13.8368 6.76182C13.5058 3.47426 10.2394 1.25188 7.05061 2.14226C4.70832 2.79623 3.10571 4.88816 3.09346 7.32459C3.08544 8.88963 3.08924 10.4551 3.09346 12.0201C3.09473 12.6293 2.92543 13.1803 2.57713 13.6789C2.21574 14.1965 1.85646 14.7154 1.49634 15.2342C1.45834 15.2891 1.42372 15.3461 1.37643 15.4196H15.5965ZM6.59844 16.7807C6.86527 17.609 7.70921 18.1663 8.59707 18.1203C9.39753 18.0789 10.2115 17.46 10.3529 16.7807H6.59844Z" fill="#212325"/>
<circle cx="14.9191" cy="3.21796" r="3.21796" fill="#FF5C5C"/>
</svg>
