<svg id="Camada_1" data-name="Camada 1" xmlns="http://www.w3.org/2000/svg" viewBox="0 0 49 49"><defs><style>.cls-1{fill:#00a473;}.cls-2{fill:#fff;}</style></defs><title>whatsapp-icon</title><path class="cls-1" d="M25.57,1.07h0a24.5,24.5,0,0,1,24.5,24.5h0a24.5,24.5,0,0,1-24.5,24.5h0a24.5,24.5,0,0,1-24.5-24.5h0A24.5,24.5,0,0,1,25.57,1.07Z" transform="translate(-1.07 -1.07)"/><path class="cls-2" d="M13.37,37.06h0a2.17,2.17,0,0,1,0-.25L15,31a.67.67,0,0,0-.06-.55,12,12,0,0,1-1.35-7.69,11.72,11.72,0,0,1,3.8-7.1,11.93,11.93,0,0,1,10.52-3,11.55,11.55,0,0,1,5.82,2.86,12,12,0,0,1,4,7.82c0,.41.06.82.1,1.22v.26c0,.14,0,.29,0,.43-.09.67-.13,1.36-.27,2A12.2,12.2,0,0,1,20,35.47a.62.62,0,0,0-.4,0l-4,1.06-2.14.58Zm2.87-2.92c1.2-.31,2.37-.61,3.52-.93a.69.69,0,0,1,.58.08,9.92,9.92,0,0,0,7.55,1.21,10.11,10.11,0,0,0,7.82-9.37,9.65,9.65,0,0,0-2.11-6.68,9.88,9.88,0,0,0-9.5-3.83,9.46,9.46,0,0,0-4.77,2.07,9.94,9.94,0,0,0-3.85,7.53,9.83,9.83,0,0,0,1.63,6,.58.58,0,0,1,.08.51c-.32,1.14-.63,2.28-1,3.46Z" transform="translate(-1.07 -1.07)"/><path class="cls-2" d="M19.37,21.88a3.54,3.54,0,0,1,1.11-2.52,1.13,1.13,0,0,1,.87-.36c.18,0,.36,0,.54,0a.54.54,0,0,1,.58.36c.37.85.73,1.69,1.06,2.55a.63.63,0,0,1-.06.48,10.56,10.56,0,0,1-.75,1,.52.52,0,0,0,0,.67,8.29,8.29,0,0,0,4.16,3.56.46.46,0,0,0,.63-.15c.31-.37.61-.74.9-1.12s.34-.33.68-.18c.69.3,1.36.63,2,.95l.14.07c.6.3.63.42.54,1.08a2.47,2.47,0,0,1-1.76,2,3.71,3.71,0,0,1-2.46,0,12.32,12.32,0,0,1-6.73-5,7,7,0,0,1-1.3-2.53c-.07-.3-.09-.6-.14-.91Z" transform="translate(-1.07 -1.07)"/></svg>